solid ASCII
  facet normal -9.996234e-01 -2.744132e-02 0.000000e+00
    outer loop
      vertex   2.400000e+01 0.000000e+00 -4.325000e+01
      vertex   2.400000e+01 0.000000e+00 4.325000e+01
      vertex   2.262742e+01 5.000000e+01 -2.262742e+01
    endloop
  endfacet
  facet normal -9.996234e-01 -2.744132e-02 0.000000e+00
    outer loop
      vertex   2.262742e+01 5.000000e+01 -2.262742e+01
      vertex   2.400000e+01 0.000000e+00 4.325000e+01
      vertex   2.262742e+01 5.000000e+01 2.262742e+01
    endloop
  endfacet
  facet normal 0.000000e+00 -3.812927e-01 9.244544e-01
    outer loop
      vertex   -2.400000e+01 0.000000e+00 -4.325000e+01
      vertex   2.400000e+01 0.000000e+00 -4.325000e+01
      vertex   -2.262742e+01 5.000000e+01 -2.262742e+01
    endloop
  endfacet
  facet normal 0.000000e+00 -3.812927e-01 9.244544e-01
    outer loop
      vertex   -2.262742e+01 5.000000e+01 -2.262742e+01
      vertex   2.400000e+01 0.000000e+00 -4.325000e+01
      vertex   2.262742e+01 5.000000e+01 -2.262742e+01
    endloop
  endfacet
  facet normal 9.996234e-01 -2.744132e-02 1.642255e-16
    outer loop
      vertex   -2.400000e+01 0.000000e+00 4.325000e+01
      vertex   -2.400000e+01 0.000000e+00 -4.325000e+01
      vertex   -2.262742e+01 5.000000e+01 2.262742e+01
    endloop
  endfacet
  facet normal 9.996234e-01 -2.744132e-02 5.493254e-16
    outer loop
      vertex   -2.262742e+01 5.000000e+01 2.262742e+01
      vertex   -2.400000e+01 0.000000e+00 -4.325000e+01
      vertex   -2.262742e+01 5.000000e+01 -2.262742e+01
    endloop
  endfacet
  facet normal -0.000000e+00 -3.812927e-01 -9.244544e-01
    outer loop
      vertex   2.400000e+01 0.000000e+00 4.325000e+01
      vertex   -2.400000e+01 0.000000e+00 4.325000e+01
      vertex   2.262742e+01 5.000000e+01 2.262742e+01
    endloop
  endfacet
  facet normal -0.000000e+00 -3.812927e-01 -9.244544e-01
    outer loop
      vertex   2.262742e+01 5.000000e+01 2.262742e+01
      vertex   -2.400000e+01 0.000000e+00 4.325000e+01
      vertex   -2.262742e+01 5.000000e+01 2.262742e+01
    endloop
  endfacet
  facet normal 0.000000e+00 -1.000000e+00 0.000000e+00
    outer loop
      vertex   2.400000e+01 0.000000e+00 -4.325000e+01
      vertex   2.500000e+01 0.000000e+00 4.425000e+01
      vertex   2.400000e+01 0.000000e+00 4.325000e+01
    endloop
  endfacet
  facet normal 0.000000e+00 -1.000000e+00 0.000000e+00
    outer loop
      vertex   2.400000e+01 0.000000e+00 4.325000e+01
      vertex   2.500000e+01 0.000000e+00 4.425000e+01
      vertex   -2.500000e+01 0.000000e+00 4.425000e+01
    endloop
  endfacet
  facet normal 0.000000e+00 -1.000000e+00 0.000000e+00
    outer loop
      vertex   2.400000e+01 0.000000e+00 4.325000e+01
      vertex   -2.500000e+01 0.000000e+00 4.425000e+01
      vertex   -2.400000e+01 0.000000e+00 4.325000e+01
    endloop
  endfacet
  facet normal -0.000000e+00 -1.000000e+00 0.000000e+00
    outer loop
      vertex   -2.400000e+01 0.000000e+00 4.325000e+01
      vertex   -2.500000e+01 0.000000e+00 4.425000e+01
      vertex   -2.500000e+01 0.000000e+00 -4.425000e+01
    endloop
  endfacet
  facet normal 0.000000e+00 -1.000000e+00 -0.000000e+00
    outer loop
      vertex   -2.400000e+01 0.000000e+00 4.325000e+01
      vertex   -2.500000e+01 0.000000e+00 -4.425000e+01
      vertex   -2.400000e+01 0.000000e+00 -4.325000e+01
    endloop
  endfacet
  facet normal 0.000000e+00 -1.000000e+00 -0.000000e+00
    outer loop
      vertex   -2.400000e+01 0.000000e+00 -4.325000e+01
      vertex   -2.500000e+01 0.000000e+00 -4.425000e+01
      vertex   2.400000e+01 0.000000e+00 -4.325000e+01
    endloop
  endfacet
  facet normal 0.000000e+00 -1.000000e+00 -0.000000e+00
    outer loop
      vertex   2.400000e+01 0.000000e+00 -4.325000e+01
      vertex   -2.500000e+01 0.000000e+00 -4.425000e+01
      vertex   2.500000e+01 0.000000e+00 -4.425000e+01
    endloop
  endfacet
  facet normal 0.000000e+00 -1.000000e+00 0.000000e+00
    outer loop
      vertex   2.400000e+01 0.000000e+00 -4.325000e+01
      vertex   2.500000e+01 0.000000e+00 -4.425000e+01
      vertex   2.500000e+01 0.000000e+00 4.425000e+01
    endloop
  endfacet
  facet normal 0.000000e+00 1.000000e+00 0.000000e+00
    outer loop
      vertex   2.262742e+01 5.000000e+01 2.262742e+01
      vertex   2.312742e+01 5.000000e+01 -2.312742e+01
      vertex   2.262742e+01 5.000000e+01 -2.262742e+01
    endloop
  endfacet
  facet normal 0.000000e+00 1.000000e+00 0.000000e+00
    outer loop
      vertex   2.262742e+01 5.000000e+01 -2.262742e+01
      vertex   2.312742e+01 5.000000e+01 -2.312742e+01
      vertex   -2.312742e+01 5.000000e+01 -2.312742e+01
    endloop
  endfacet
  facet normal 0.000000e+00 1.000000e+00 0.000000e+00
    outer loop
      vertex   2.262742e+01 5.000000e+01 -2.262742e+01
      vertex   -2.312742e+01 5.000000e+01 -2.312742e+01
      vertex   -2.262742e+01 5.000000e+01 -2.262742e+01
    endloop
  endfacet
  facet normal 0.000000e+00 1.000000e+00 0.000000e+00
    outer loop
      vertex   -2.262742e+01 5.000000e+01 -2.262742e+01
      vertex   -2.312742e+01 5.000000e+01 -2.312742e+01
      vertex   -2.312742e+01 5.000000e+01 2.312742e+01
    endloop
  endfacet
  facet normal 0.000000e+00 1.000000e+00 0.000000e+00
    outer loop
      vertex   -2.262742e+01 5.000000e+01 -2.262742e+01
      vertex   -2.312742e+01 5.000000e+01 2.312742e+01
      vertex   -2.262742e+01 5.000000e+01 2.262742e+01
    endloop
  endfacet
  facet normal 0.000000e+00 1.000000e+00 -0.000000e+00
    outer loop
      vertex   -2.262742e+01 5.000000e+01 2.262742e+01
      vertex   -2.312742e+01 5.000000e+01 2.312742e+01
      vertex   2.262742e+01 5.000000e+01 2.262742e+01
    endloop
  endfacet
  facet normal 0.000000e+00 1.000000e+00 -0.000000e+00
    outer loop
      vertex   2.262742e+01 5.000000e+01 2.262742e+01
      vertex   -2.312742e+01 5.000000e+01 2.312742e+01
      vertex   2.312742e+01 5.000000e+01 2.312742e+01
    endloop
  endfacet
  facet normal -0.000000e+00 1.000000e+00 0.000000e+00
    outer loop
      vertex   2.262742e+01 5.000000e+01 2.262742e+01
      vertex   2.312742e+01 5.000000e+01 2.312742e+01
      vertex   2.312742e+01 5.000000e+01 -2.312742e+01
    endloop
  endfacet
  facet normal 9.992994e-01 3.742542e-02 -0.000000e+00
    outer loop
      vertex   2.312742e+01 5.000000e+01 -2.312742e+01
      vertex   2.312742e+01 5.000000e+01 2.312742e+01
      vertex   2.500000e+01 0.000000e+00 -4.425000e+01
    endloop
  endfacet
  facet normal 9.992994e-01 3.742542e-02 4.011553e-17
    outer loop
      vertex   2.500000e+01 0.000000e+00 -4.425000e+01
      vertex   2.312742e+01 5.000000e+01 2.312742e+01
      vertex   2.500000e+01 0.000000e+00 4.425000e+01
    endloop
  endfacet
  facet normal 0.000000e+00 3.891514e-01 -9.211738e-01
    outer loop
      vertex   -2.312742e+01 5.000000e+01 -2.312742e+01
      vertex   2.312742e+01 5.000000e+01 -2.312742e+01
      vertex   -2.500000e+01 0.000000e+00 -4.425000e+01
    endloop
  endfacet
  facet normal 0.000000e+00 3.891514e-01 -9.211738e-01
    outer loop
      vertex   -2.500000e+01 0.000000e+00 -4.425000e+01
      vertex   2.312742e+01 5.000000e+01 -2.312742e+01
      vertex   2.500000e+01 0.000000e+00 -4.425000e+01
    endloop
  endfacet
  facet normal -9.992994e-01 3.742542e-02 -3.837680e-16
    outer loop
      vertex   -2.312742e+01 5.000000e+01 2.312742e+01
      vertex   -2.312742e+01 5.000000e+01 -2.312742e+01
      vertex   -2.500000e+01 0.000000e+00 4.425000e+01
    endloop
  endfacet
  facet normal -9.992994e-01 3.742542e-02 -8.023107e-17
    outer loop
      vertex   -2.500000e+01 0.000000e+00 4.425000e+01
      vertex   -2.312742e+01 5.000000e+01 -2.312742e+01
      vertex   -2.500000e+01 0.000000e+00 -4.425000e+01
    endloop
  endfacet
  facet normal 0.000000e+00 3.891514e-01 9.211738e-01
    outer loop
      vertex   2.312742e+01 5.000000e+01 2.312742e+01
      vertex   -2.312742e+01 5.000000e+01 2.312742e+01
      vertex   2.500000e+01 0.000000e+00 4.425000e+01
    endloop
  endfacet
  facet normal 0.000000e+00 3.891514e-01 9.211738e-01
    outer loop
      vertex   2.500000e+01 0.000000e+00 4.425000e+01
      vertex   -2.312742e+01 5.000000e+01 2.312742e+01
      vertex   -2.500000e+01 0.000000e+00 4.425000e+01
    endloop
  endfacet
endsolid
